<svg width="120" height="120" viewBox="0 0 120 120" fill="none" xmlns="http://www.w3.org/2000/svg">
<rect width="120" height="120" fill="#484848"/>
<path d="M60.3429 41.1428L60.3634 62.8457C59.1497 62.1463 57.7509 61.7143 56.2491 61.7143C51.6823 61.7143 48 65.3965 48 69.9428C48 74.4891 51.6823 78.1714 56.2491 78.1714C60.816 78.1714 64.4571 74.4891 64.4571 69.9428V49.3714H72.6857V41.1428H60.3429ZM56.2491 74.0571C53.9863 74.0571 52.1349 72.2057 52.1349 69.9428C52.1349 67.68 53.9863 65.8285 56.2491 65.8285C58.512 65.8285 60.3634 67.68 60.3634 69.9428C60.3634 72.2057 58.512 74.0571 56.2491 74.0571Z" fill="white" fill-opacity="0.61"/>
<line x1="39.7715" y1="39.457" x2="52.1143" y2="39.457" stroke="white" stroke-opacity="0.61" stroke-width="2"/>
<line x1="39.7715" y1="43.5715" x2="52.1143" y2="43.5715" stroke="white" stroke-opacity="0.61" stroke-width="2"/>
<line x1="39.7715" y1="47.6858" x2="52.1143" y2="47.6858" stroke="white" stroke-opacity="0.61" stroke-width="2"/>
</svg>
