<svg width="28" height="28" viewBox="0 0 28 28" fill="none" xmlns="http://www.w3.org/2000/svg">
<path d="M24.8395 5.38046C24.2436 4.7843 23.5361 4.31138 22.7574 3.98873C21.9787 3.66607 21.1441 3.5 20.3012 3.5C19.4583 3.5 18.6236 3.66607 17.8449 3.98873C17.0662 4.31138 16.3587 4.7843 15.7628 5.38046L14.5262 6.61713L13.2895 5.38046C12.0859 4.17682 10.4534 3.50062 8.75118 3.50062C7.04897 3.50062 5.41649 4.17682 4.21285 5.38046C3.00921 6.5841 2.33301 8.21659 2.33301 9.9188C2.33301 11.621 3.00921 13.2535 4.21285 14.4571L5.44951 15.6938L14.5262 24.7705L23.6028 15.6938L24.8395 14.4571C25.4357 13.8612 25.9086 13.1537 26.2312 12.375C26.5539 11.5963 26.72 10.7617 26.72 9.9188C26.72 9.07589 26.5539 8.24125 26.2312 7.46255C25.9086 6.68385 25.4357 5.97635 24.8395 5.38046Z" fill="#FD2F2F" stroke="#FD2F2F" stroke-width="2" stroke-linecap="round" stroke-linejoin="round"/>
</svg>
