<?xml version="1.0" encoding="UTF-8" standalone="no"?>
<svg
   width="26.386719"
   height="23.271292"
   viewBox="0 0 26.386719 23.271292"
   fill="none"
   version="1.1"
   id="svg6271"
   sodipodi:docname="like.svg"
   inkscape:version="1.2.2 (b0a84865, 2022-12-01)"
   xmlns:inkscape="http://www.inkscape.org/namespaces/inkscape"
   xmlns:sodipodi="http://sodipodi.sourceforge.net/DTD/sodipodi-0.dtd"
   xmlns="http://www.w3.org/2000/svg"
   xmlns:svg="http://www.w3.org/2000/svg">
  <defs
     id="defs6275" />
  <sodipodi:namedview
     id="namedview6273"
     pagecolor="#505050"
     bordercolor="#eeeeee"
     borderopacity="1"
     inkscape:showpageshadow="0"
     inkscape:pageopacity="0"
     inkscape:pagecheckerboard="0"
     inkscape:deskcolor="#505050"
     showgrid="false"
     inkscape:zoom="8.4285714"
     inkscape:cx="12.813559"
     inkscape:cy="11.508475"
     inkscape:window-width="1309"
     inkscape:window-height="456"
     inkscape:window-x="0"
     inkscape:window-y="25"
     inkscape:window-maximized="0"
     inkscape:current-layer="svg6271" />
  <g
     id="path6269"
     transform="translate(-1.3339844,-2.5)">
    <path
       style="color:#000000;fill:#fd2f2f;stroke-width:2;stroke-linecap:round;stroke-linejoin:round;-inkscape-stroke:none"
       d="M 24.8395,5.38046 C 24.2436,4.7843 23.5361,4.31138 22.7574,3.98873 21.9787,3.66607 21.1441,3.5 20.3012,3.5 19.4583,3.5 18.6236,3.66607 17.8449,3.98873 17.0662,4.31138 16.3587,4.7843 15.7628,5.38046 L 14.5262,6.61713 13.2895,5.38046 C 12.0859,4.17682 10.4534,3.50062 8.75118,3.50062 7.04897,3.50062 5.41649,4.17682 4.21285,5.38046 3.00921,6.5841 2.33301,8.21659 2.33301,9.9188 c 0,1.7022 0.6762,3.3347 1.87984,4.5383 l 1.23666,1.2367 9.07669,9.0767 9.0766,-9.0767 1.2367,-1.2367 c 0.5962,-0.5959 1.0691,-1.3034 1.3917,-2.0821 0.3227,-0.7787 0.4888,-1.6133 0.4888,-2.4562 0,-0.84291 -0.1661,-1.67755 -0.4888,-2.45625 -0.3226,-0.7787 -0.7955,-1.4862 -1.3917,-2.08209 z"
       id="path6759" />
    <path
       style="color:#000000;fill:#fd2f2f;stroke-linecap:round;stroke-linejoin:round;-inkscape-stroke:none"
       d="m 8.7519531,2.5 c -1.9670402,0 -3.855192,0.7829264 -5.2460937,2.1738281 -1.3909037,1.3909037 -2.171875,3.2771004 -2.171875,5.2441407 0,1.9670322 0.7809556,3.8552202 2.171875,5.2460942 l 1.2363281,1.236328 9.0761715,9.078125 a 1.0001,1.0001 0 0 0 1.414063,0 l 9.078125,-9.078125 1.236328,-1.236328 c 0.68911,-0.688764 1.234538,-1.506175 1.607422,-2.40625 0.372983,-0.900039 0.566406,-1.865573 0.566406,-2.8398442 0,-0.9742794 -0.193418,-1.9378412 -0.566406,-2.8378907 C 26.781413,6.1800022 26.235991,5.3625858 25.546875,4.6738281 24.858129,3.9847812 24.040675,3.437384 23.140625,3.0644531 22.240589,2.6915166 21.275028,2.5 20.300781,2.5 19.326534,2.5 18.362955,2.691505 17.462891,3.0644531 16.56284,3.437384 15.743434,3.9847812 15.054688,4.6738281 L 14.525391,5.203125 13.996094,4.6738281 C 12.605221,3.2829088 10.719002,2.5 8.7519531,2.5 Z m 0,2 c 1.4373879,0 2.8137539,0.5715324 3.8300779,1.5878906 l 1.236328,1.2363281 a 1.0001,1.0001 0 0 0 1.414063,0 L 16.470703,6.0878906 C 16.973756,5.5846187 17.571168,5.1844778 18.228516,4.9121094 18.88585,4.6397381 19.58923,4.5 20.300781,4.5 c 0.711551,0 1.416857,0.1397265 2.074219,0.4121094 0.657348,0.2723684 1.25476,0.6725093 1.757812,1.1757812 0.503283,0.5030212 0.901513,1.10049 1.173829,1.7578125 0.272411,0.657349 0.414062,1.3607267 0.414062,2.0722657 0,0.7115272 -0.141647,1.4168582 -0.414062,2.0742192 -0.272316,0.657322 -0.67054,1.254777 -1.173829,1.757812 L 22.896484,14.986328 14.525391,23.355469 6.15625,14.986328 4.9199219,13.75 C 3.9035636,12.733676 3.3339844,11.355334 3.3339844,9.9179688 c 0,-1.4373764 0.5695635,-2.8137042 1.5859375,-3.8300782 C 5.9362978,5.0715147 7.3145768,4.5 8.7519531,4.5 Z"
       id="path6761" />
  </g>
</svg>
