<?xml version="1.0" encoding="UTF-8" standalone="no"?>
<svg
   width="23"
   height="16"
   viewBox="0 0 23 16"
   fill="none"
   version="1.1"
   id="svg7507"
   sodipodi:docname="list.svg"
   inkscape:version="1.2.2 (b0a84865, 2022-12-01)"
   xmlns:inkscape="http://www.inkscape.org/namespaces/inkscape"
   xmlns:sodipodi="http://sodipodi.sourceforge.net/DTD/sodipodi-0.dtd"
   xmlns="http://www.w3.org/2000/svg"
   xmlns:svg="http://www.w3.org/2000/svg">
  <defs
     id="defs7511" />
  <sodipodi:namedview
     id="namedview7509"
     pagecolor="#505050"
     bordercolor="#eeeeee"
     borderopacity="1"
     inkscape:showpageshadow="0"
     inkscape:pageopacity="0"
     inkscape:pagecheckerboard="0"
     inkscape:deskcolor="#505050"
     showgrid="false"
     inkscape:zoom="8.4285714"
     inkscape:cx="11.627119"
     inkscape:cy="7.9491526"
     inkscape:window-width="1309"
     inkscape:window-height="456"
     inkscape:window-x="0"
     inkscape:window-y="25"
     inkscape:window-maximized="0"
     inkscape:current-layer="svg7507" />
  <path
     style="color:#000000;fill:#ffffff;stroke-linecap:round;stroke-linejoin:round;-inkscape-stroke:none"
     d="m 6.8339844,0 a 1,1 0 0 0 -1,1 1,1 0 0 0 1,1 H 22 A 1,1 0 0 0 23,1 1,1 0 0 0 22,0 Z"
     id="path7495" />
  <path
     style="color:#000000;fill:#ffffff;stroke-linecap:round;stroke-linejoin:round;-inkscape-stroke:none"
     d="m 6.8339844,7 a 1,1 0 0 0 -1,1 1,1 0 0 0 1,1 H 22 A 1,1 0 0 0 23,8 1,1 0 0 0 22,7 Z"
     id="path7497" />
  <path
     style="color:#000000;fill:#ffffff;stroke-linecap:round;stroke-linejoin:round;-inkscape-stroke:none"
     d="m 6.8339844,14 a 1,1 0 0 0 -1,1 1,1 0 0 0 1,1 H 22 a 1,1 0 0 0 1,-1 1,1 0 0 0 -1,-1 z"
     id="path7499" />
  <path
     style="color:#000000;fill:#ffffff;stroke-linecap:round;stroke-linejoin:round;-inkscape-stroke:none"
     d="M 1,0 A 1,1 0 0 0 0,1 1,1 0 0 0 1,2 H 1.011719 A 1,1 0 0 0 2.0117187,1 1,1 0 0 0 1.0117188,0 Z"
     id="path7501" />
  <path
     style="color:#000000;fill:#ffffff;stroke-linecap:round;stroke-linejoin:round;-inkscape-stroke:none"
     d="M 1,7 A 1,1 0 0 0 0,8 1,1 0 0 0 1,9 H 1.011719 A 1,1 0 0 0 2.0117187,8 1,1 0 0 0 1.0117188,7 Z"
     id="path7503" />
  <path
     style="color:#000000;fill:#ffffff;stroke-linecap:round;stroke-linejoin:round;-inkscape-stroke:none"
     d="m 1,14 a 1,1 0 0 0 -1,1 1,1 0 0 0 1,1 H 1.011719 A 1,1 0 0 0 2.0117187,15 1,1 0 0 0 1.0117188,14 Z"
     id="path7505" />
</svg>
