<?xml version="1.0" encoding="UTF-8" standalone="no"?>
<svg
   width="20"
   height="20"
   viewBox="0 0 20 20"
   fill="none"
   version="1.1"
   id="svg8756"
   sodipodi:docname="log-out.svg"
   inkscape:version="1.2.2 (b0a84865, 2022-12-01)"
   xmlns:inkscape="http://www.inkscape.org/namespaces/inkscape"
   xmlns:sodipodi="http://sodipodi.sourceforge.net/DTD/sodipodi-0.dtd"
   xmlns="http://www.w3.org/2000/svg"
   xmlns:svg="http://www.w3.org/2000/svg">
  <defs
     id="defs8760" />
  <sodipodi:namedview
     id="namedview8758"
     pagecolor="#505050"
     bordercolor="#eeeeee"
     borderopacity="1"
     inkscape:showpageshadow="0"
     inkscape:pageopacity="0"
     inkscape:pagecheckerboard="0"
     inkscape:deskcolor="#505050"
     showgrid="false"
     inkscape:zoom="9.8333333"
     inkscape:cx="10.067797"
     inkscape:cy="9.9661017"
     inkscape:window-width="1309"
     inkscape:window-height="456"
     inkscape:window-x="0"
     inkscape:window-y="25"
     inkscape:window-maximized="0"
     inkscape:current-layer="svg8756" />
  <g
     id="log-out"
     transform="translate(-2,-2)">
    <path
       style="color:#000000;fill:#ffffff;stroke-linecap:round;stroke-linejoin:round;-inkscape-stroke:none"
       d="M 5,2 C 4.2047416,2 3.4412465,2.316551 2.8789063,2.8789063 2.316551,3.4412465 2,4.2047416 2,5 v 14 c 0,0.795243 0.3165904,1.558748 0.8789063,2.121094 C 3.4412548,21.683487 4.2047542,22 5,22 H 9 A 1,1 0 0 0 10,21 1,1 0 0 0 9,20 H 5 C 4.7343869,20 4.4807594,19.894837 4.2929687,19.707031 4.1051254,19.519178 4,19.265556 4,19 V 5 C 4,4.7343994 4.1051647,4.4807678 4.2929687,4.2929687 4.4807678,4.1051647 4.7343994,4 5,4 H 9 A 1,1 0 0 0 10,3 1,1 0 0 0 9,2 Z"
       id="Vector" />
    <path
       style="color:#000000;fill:#ffffff;stroke-linecap:round;stroke-linejoin:round;-inkscape-stroke:none"
       d="m 15.292969,6.2929687 a 1,1 0 0 0 0,1.4140625 L 19.585937,12 15.292969,16.292969 a 1,1 0 0 0 0,1.414062 1,1 0 0 0 1.414062,0 l 5,-5 a 1.0001,1.0001 0 0 0 0,-1.414062 l -5,-5.0000003 a 1,1 0 0 0 -1.414062,0 z"
       id="Vector_2" />
    <path
       style="color:#000000;fill:#ffffff;stroke-linecap:round;stroke-linejoin:round;-inkscape-stroke:none"
       d="m 9,11 a 1,1 0 0 0 -1,1 1,1 0 0 0 1,1 h 12 a 1,1 0 0 0 1,-1 1,1 0 0 0 -1,-1 z"
       id="Vector_3" />
  </g>
</svg>
