<?xml version="1.0" encoding="UTF-8" standalone="no"?>
<svg
   width="24"
   height="24"
   viewBox="0 0 24 24"
   fill="none"
   version="1.1"
   id="svg11230"
   sodipodi:docname="more-horizontal.svg"
   inkscape:version="1.2.2 (b0a84865, 2022-12-01)"
   xmlns:inkscape="http://www.inkscape.org/namespaces/inkscape"
   xmlns:sodipodi="http://sodipodi.sourceforge.net/DTD/sodipodi-0.dtd"
   xmlns="http://www.w3.org/2000/svg"
   xmlns:svg="http://www.w3.org/2000/svg">
  <defs
     id="defs11234" />
  <sodipodi:namedview
     id="namedview11232"
     pagecolor="#505050"
     bordercolor="#eeeeee"
     borderopacity="1"
     inkscape:showpageshadow="0"
     inkscape:pageopacity="0"
     inkscape:pagecheckerboard="0"
     inkscape:deskcolor="#505050"
     showgrid="false"
     inkscape:zoom="9.8333333"
     inkscape:cx="12"
     inkscape:cy="12"
     inkscape:window-width="1309"
     inkscape:window-height="456"
     inkscape:window-x="0"
     inkscape:window-y="25"
     inkscape:window-maximized="0"
     inkscape:current-layer="svg11230" />
  <g
     id="more-horizontal">
    <path
       style="color:#000000;fill:#ffffff;fill-opacity:0.7;stroke-linecap:round;stroke-linejoin:round;-inkscape-stroke:none"
       d="m 12,10 c -1.092706,0 -2,0.907294 -2,2 0,1.092706 0.907294,2 2,2 1.092706,0 2,-0.907294 2,-2 0,-1.092706 -0.907294,-2 -2,-2 z"
       id="Vector" />
    <path
       style="color:#000000;fill:#ffffff;fill-opacity:0.7;stroke-linecap:round;stroke-linejoin:round;-inkscape-stroke:none"
       d="m 19,10 c -1.092706,0 -2,0.907294 -2,2 0,1.092706 0.907294,2 2,2 1.092706,0 2,-0.907294 2,-2 0,-1.092706 -0.907294,-2 -2,-2 z"
       id="Vector_2" />
    <path
       style="color:#000000;fill:#ffffff;fill-opacity:0.7;stroke-linecap:round;stroke-linejoin:round;-inkscape-stroke:none"
       d="m 5,10 c -1.0927053,0 -2,0.90727 -2,2 0,1.09273 0.9072947,2 2,2 1.0927053,0 2,-0.90727 2,-2 0,-1.09273 -0.9072947,-2 -2,-2 z"
       id="Vector_3" />
  </g>
</svg>
