<?xml version="1.0" encoding="UTF-8" standalone="no"?>
<svg
   width="24.48531"
   height="16.544107"
   viewBox="0 0 24.48531 16.544107"
   fill="none"
   version="1.1"
   id="svg5261"
   sodipodi:docname="next-track.svg"
   inkscape:version="1.2.2 (b0a84865, 2022-12-01)"
   xmlns:inkscape="http://www.inkscape.org/namespaces/inkscape"
   xmlns:sodipodi="http://sodipodi.sourceforge.net/DTD/sodipodi-0.dtd"
   xmlns="http://www.w3.org/2000/svg"
   xmlns:svg="http://www.w3.org/2000/svg">
  <defs
     id="defs5265" />
  <sodipodi:namedview
     id="namedview5263"
     pagecolor="#505050"
     bordercolor="#eeeeee"
     borderopacity="1"
     inkscape:showpageshadow="0"
     inkscape:pageopacity="0"
     inkscape:pagecheckerboard="0"
     inkscape:deskcolor="#505050"
     showgrid="false"
     inkscape:zoom="13.111111"
     inkscape:cx="12.355932"
     inkscape:cy="8.0847458"
     inkscape:window-width="1309"
     inkscape:window-height="456"
     inkscape:window-x="0"
     inkscape:window-y="25"
     inkscape:window-maximized="0"
     inkscape:current-layer="svg5261" />
  <path
     d="m 23.736909,6.746986 -9.6352,-6.48968998 c -0.2384,-0.163279 -0.5113,-0.251495 -0.7903,-0.255435 -0.279,-0.00394 -0.5539,0.076541 -0.7958,0.233035 -0.2625,0.17208 -0.4799,0.41931 -0.63,0.71657 -0.1502,0.29725998 -0.2278,0.63395998 -0.225,0.97591998 v 4.53991 L 2.441149,0.25556602 C 2.202789,0.09229402 1.929849,0.00407802 1.650839,1.3801936e-4 1.371839,-0.00380198 1.097019,0.07667902 0.85508901,0.23317602 c -0.2625,0.17208 -0.479875,0.41931 -0.630044,0.71657 C 0.07487501,1.247006 -0.00274199,1.583706 7.9011949e-5,1.925656 v 12.69221 c -0.0029110019,0.3421 0.07466199805,0.6789 0.224836998051,0.9763 0.150174,0.2973 0.367593,0.5446 0.630173,0.7168 0.24192999,0.1565 0.51674999,0.237 0.79574999,0.233 0.27901,-0.0039 0.55195,-0.0921 0.79031,-0.2554 l 9.21946,-6.2146 v 4.5416 c -0.0033,0.3425 0.0741,0.6798 0.2243,0.9776 0.1502,0.2978 0.3678,0.5455 0.6307,0.7178 0.2419,0.1565 0.5168,0.237 0.7958,0.233 0.279,-0.0039 0.5519,-0.0921 0.7903,-0.2554 l 9.6352,-6.4897 c 0.2291,-0.1615 0.4179,-0.3859 0.5488,-0.6521 0.1309,-0.26626 0.1996,-0.56555 0.1996,-0.86983 0,-0.30428 -0.0687,-0.60356 -0.1996,-0.86977 -0.1309,-0.26621 -0.3197,-0.49061 -0.5488,-0.65214 z"
     fill="#ffffff"
     id="path5259" />
</svg>
