<svg width="26" height="18" viewBox="0 0 26 18" fill="none" xmlns="http://www.w3.org/2000/svg">
<path d="M24.3248 7.64402L14.6896 1.15433C14.4512 0.991051 14.1783 0.902835 13.8993 0.898895C13.6203 0.894955 13.3454 0.975436 13.1035 1.13193C12.841 1.30401 12.6236 1.55124 12.4735 1.8485C12.3233 2.14576 12.2457 2.48246 12.2485 2.82442V7.36433L3.02904 1.1526C2.79068 0.989328 2.51774 0.901112 2.23873 0.897172C1.95973 0.893232 1.68491 0.973713 1.44298 1.13021C1.18048 1.30229 0.963105 1.54952 0.812936 1.84678C0.662766 2.14404 0.585149 2.48074 0.58797 2.82269V15.5149C0.585059 15.857 0.662632 16.1938 0.812807 16.4912C0.962981 16.7885 1.1804 17.0358 1.44298 17.208C1.68491 17.3645 1.95973 17.445 2.23873 17.441C2.51774 17.4371 2.79068 17.3489 3.02904 17.1856L12.2485 10.971V15.5126C12.2452 15.8551 12.3226 16.1924 12.4728 16.4902C12.623 16.788 12.8406 17.0357 13.1035 17.208C13.3454 17.3645 13.6203 17.445 13.8993 17.441C14.1783 17.4371 14.4512 17.3489 14.6896 17.1856L24.3248 10.6959C24.5539 10.5344 24.7427 10.31 24.8736 10.0438C25.0045 9.77754 25.0732 9.47825 25.0732 9.17397C25.0732 8.86969 25.0045 8.57041 24.8736 8.3042C24.7427 8.03799 24.5539 7.81359 24.3248 7.65206V7.64402Z" fill="white"/>
</svg>
