<?xml version="1.0" encoding="UTF-8" standalone="no"?>
<svg
   width="24.485292"
   height="16.544107"
   viewBox="0 0 24.485292 16.544107"
   fill="none"
   version="1.1"
   id="svg134"
   sodipodi:docname="prev-track.svg"
   inkscape:version="1.2.2 (b0a84865, 2022-12-01)"
   xmlns:inkscape="http://www.inkscape.org/namespaces/inkscape"
   xmlns:sodipodi="http://sodipodi.sourceforge.net/DTD/sodipodi-0.dtd"
   xmlns="http://www.w3.org/2000/svg"
   xmlns:svg="http://www.w3.org/2000/svg">
  <defs
     id="defs138" />
  <sodipodi:namedview
     id="namedview136"
     pagecolor="#505050"
     bordercolor="#eeeeee"
     borderopacity="1"
     inkscape:showpageshadow="0"
     inkscape:pageopacity="0"
     inkscape:pagecheckerboard="0"
     inkscape:deskcolor="#505050"
     showgrid="false"
     inkscape:zoom="13.111111"
     inkscape:cx="12.355932"
     inkscape:cy="8.0847458"
     inkscape:window-width="1309"
     inkscape:window-height="456"
     inkscape:window-x="0"
     inkscape:window-y="25"
     inkscape:window-maximized="0"
     inkscape:current-layer="svg134" />
  <path
     d="m 0.748389,6.746986 9.63522,-6.48968998 c 0.2384,-0.163279 0.5113,-0.251495 0.7903,-0.255435 0.279,-0.00394 0.5538,0.076541 0.7958,0.233035 0.2625,0.17208 0.4798,0.41931 0.63,0.71657 0.1502,0.29725998 0.2278,0.63395998 0.225,0.97591998 v 4.53991 l 9.2194,-6.21172998 c 0.2384,-0.163272 0.5113,-0.251488 0.7903,-0.25542800064 0.279,-0.003939999 0.5539,0.0765410006 0.7958,0.23303800064 0.2625,0.17208 0.4799,0.41931 0.63,0.71657 0.1502,0.29725998 0.2278,0.63395998 0.225,0.97590998 v 12.69221 c 0.003,0.3421 -0.0746,0.6789 -0.2248,0.9763 -0.1501,0.2974 -0.3676,0.5447 -0.6302,0.7168 -0.2419,0.1565 -0.5168,0.237 -0.7958,0.233 -0.279,-0.0039 -0.5519,-0.0921 -0.7903,-0.2554 l -9.2194,-6.2146 v 4.5416 c 0.0033,0.3425 -0.0741,0.6798 -0.2243,0.9776 -0.1502,0.2978 -0.3678,0.5455 -0.6307,0.7178 -0.242,0.1565 -0.5168,0.237 -0.7958,0.233 -0.279,-0.0039 -0.5519,-0.0921 -0.7903,-0.2554 l -9.63522,-6.4897 C 0.519329,9.637366 0.330487,9.412966 0.199581,9.146766 0.068675,8.880506 0,8.581216 0,8.276936 0,7.972656 0.068675,7.673376 0.199581,7.407166 0.330487,7.140956 0.519329,6.916556 0.748389,6.755026 Z"
     fill="#ffffff"
     id="path132" />
</svg>
