<svg width="26" height="18" viewBox="0 0 26 18" fill="none" xmlns="http://www.w3.org/2000/svg">
<path d="M1.33628 7.64402L10.9715 1.15433C11.2099 0.991051 11.4828 0.902835 11.7618 0.898895C12.0408 0.894955 12.3156 0.975436 12.5576 1.13193C12.8201 1.30401 13.0374 1.55124 13.1876 1.8485C13.3378 2.14576 13.4154 2.48246 13.4126 2.82442V7.36433L22.632 1.1526C22.8704 0.989328 23.1433 0.901112 23.4223 0.897172C23.7013 0.893232 23.9762 0.973713 24.2181 1.13021C24.4806 1.30229 24.698 1.54952 24.8481 1.84678C24.9983 2.14404 25.0759 2.48074 25.0731 2.82269V15.5149C25.0761 15.857 24.9985 16.1938 24.8483 16.4912C24.6982 16.7886 24.4807 17.0359 24.2181 17.208C23.9762 17.3645 23.7013 17.445 23.4223 17.441C23.1433 17.4371 22.8704 17.3489 22.632 17.1856L13.4126 10.971V15.5126C13.4159 15.8551 13.3385 16.1924 13.1883 16.4902C13.0381 16.788 12.8205 17.0357 12.5576 17.208C12.3156 17.3645 12.0408 17.445 11.7618 17.441C11.4828 17.4371 11.2099 17.3489 10.9715 17.1856L1.33628 10.6959C1.10722 10.5344 0.918378 10.31 0.787472 10.0438C0.656566 9.77754 0.587891 9.47825 0.587891 9.17397C0.587891 8.86969 0.656566 8.57041 0.787472 8.3042C0.918378 8.03799 1.10722 7.81359 1.33628 7.65206V7.64402Z" fill="white"/>
</svg>
