<?xml version="1.0" encoding="UTF-8" standalone="no"?>
<svg
   width="20"
   height="22"
   viewBox="0 0 20 22"
   fill="none"
   version="1.1"
   id="svg22344"
   sodipodi:docname="trash-2.svg"
   inkscape:version="1.2.2 (b0a84865, 2022-12-01)"
   xmlns:inkscape="http://www.inkscape.org/namespaces/inkscape"
   xmlns:sodipodi="http://sodipodi.sourceforge.net/DTD/sodipodi-0.dtd"
   xmlns="http://www.w3.org/2000/svg"
   xmlns:svg="http://www.w3.org/2000/svg">
  <defs
     id="defs22348" />
  <sodipodi:namedview
     id="namedview22346"
     pagecolor="#505050"
     bordercolor="#eeeeee"
     borderopacity="1"
     inkscape:showpageshadow="0"
     inkscape:pageopacity="0"
     inkscape:pagecheckerboard="0"
     inkscape:deskcolor="#505050"
     showgrid="false"
     inkscape:zoom="9.8333333"
     inkscape:cx="10.067797"
     inkscape:cy="10.983051"
     inkscape:window-width="1309"
     inkscape:window-height="456"
     inkscape:window-x="0"
     inkscape:window-y="25"
     inkscape:window-maximized="0"
     inkscape:current-layer="svg22344" />
  <g
     id="trash-2"
     transform="translate(-2,-1)">
    <path
       style="color:#000000;fill:#ffffff;fill-opacity:0.7;stroke-linecap:round;stroke-linejoin:round;-inkscape-stroke:none"
       d="M 3,5 A 1,1 0 0 0 2,6 1,1 0 0 0 3,7 H 5 21 A 1,1 0 0 0 22,6 1,1 0 0 0 21,5 H 5 Z"
       id="Vector" />
    <path
       style="color:#000000;fill:#ffffff;fill-opacity:0.7;stroke-linecap:round;stroke-linejoin:round;-inkscape-stroke:none"
       d="M 10,1 C 9.2047416,1 8.4412465,1.316551 7.8789062,1.8789062 7.316551,2.4412465 7,3.2047416 7,4 V 6 A 1,1 0 0 0 8,7 1,1 0 0 0 9,6 V 4 C 9,3.7343994 9.1051647,3.4807678 9.2929688,3.2929688 9.4807678,3.1051647 9.7343994,3 10,3 h 4 c 0.265556,0 0.519178,0.1051254 0.707031,0.2929688 C 14.894837,3.4807594 15,3.7343869 15,4 v 2 a 1,1 0 0 0 1,1 1,1 0 0 0 1,-1 V 4 C 17,3.2047542 16.683487,2.4412548 16.121094,1.8789062 15.558748,1.3165904 14.795243,1 14,1 Z M 5,5 A 1,1 0 0 0 4,6 v 14 c 0,0.795243 0.3165904,1.558748 0.8789062,2.121094 C 5.4412548,22.683487 6.2047542,23 7,23 h 10 c 0.795231,0 1.55874,-0.316552 2.121094,-0.878906 C 19.683448,21.55874 20,20.795231 20,20 V 6 A 1,1 0 0 0 19,5 1,1 0 0 0 18,6 v 14 c 0,0.265568 -0.105124,0.519186 -0.292969,0.707031 C 17.519186,20.894876 17.265568,21 17,21 H 7 C 6.7343869,21 6.4807594,20.894837 6.2929687,20.707031 6.1051254,20.519178 6,20.265556 6,20 V 6 A 1,1 0 0 0 5,5 Z"
       id="Vector_2" />
    <path
       style="color:#000000;fill:#ffffff;fill-opacity:0.7;stroke-linecap:round;stroke-linejoin:round;-inkscape-stroke:none"
       d="m 10,10 a 1,1 0 0 0 -1,1 v 6 a 1,1 0 0 0 1,1 1,1 0 0 0 1,-1 v -6 a 1,1 0 0 0 -1,-1 z"
       id="Vector_3" />
    <path
       style="color:#000000;fill:#ffffff;fill-opacity:0.7;stroke-linecap:round;stroke-linejoin:round;-inkscape-stroke:none"
       d="m 14,10 a 1,1 0 0 0 -1,1 v 6 a 1,1 0 0 0 1,1 1,1 0 0 0 1,-1 v -6 a 1,1 0 0 0 -1,-1 z"
       id="Vector_4" />
  </g>
</svg>
